Coordinates
version=1
nRows=9
nColumns=36
inDegrees=yes

Units are S.I. units (second, meters, Newtons, ...)
If the header above contains a line with 'inDegrees', this indicates whether rotational values are in degrees (yes) or radians (no).

endheader
time	pelvis_tilt	pelvis_list	pelvis_rotation	pelvis_tx	pelvis_ty	pelvis_tz	hip_flexion_r	hip_adduction_r	hip_rotation_r	knee_angle_r	knee_angle_r_beta	ankle_angle_r	subtalar_angle_r	mtp_angle_r	hip_flexion_l	hip_adduction_l	hip_rotation_l	knee_angle_l	knee_angle_l_beta	ankle_angle_l	subtalar_angle_l	mtp_angle_l	lumbar_extension	lumbar_bending	lumbar_rotation	arm_flex_r	arm_add_r	arm_rot_r	elbow_flex_r	pro_sup_r	arm_flex_l	arm_add_l	arm_rot_l	elbow_flex_l	pro_sup_l
      2.92500000	     -4.85339016	      0.70160232	      2.95580702	     -0.00255637	      0.87426715	     -0.05987434	     42.79040505	    -10.14180632	     -3.93792947	     33.80103396	      0.58993933	    -21.68234818	     -2.84946540	     -7.49999987	     41.15639614	     -6.95697808	     -5.46774493	     25.56330798	      0.44616389	    -28.22217280	     -3.40240526	     -7.49999987	    -32.06679039	      2.75278973	      6.18335302	    -39.08599176	    -26.58166837	    -28.19211322	    101.97215059	     78.31483531	    -26.85320406	    -44.31161177	    -38.27330871	    122.95053396	     81.37595998
      2.92916670	     -4.74099431	      0.84776450	      2.87130158	      0.00462617	      0.86184789	     -0.06277872	     43.54737486	    -10.32087423	     -3.41889063	     36.71378746	      0.64077647	    -17.09180223	     -3.54088658	     -7.49999987	     42.35981195	     -6.81446414	     -4.75955729	     28.21457565	      0.49243724	    -26.35524972	     -4.19247312	     -7.49999987	    -32.19958302	      2.80271292	      6.55695639	    -38.17809925	    -26.14269227	    -28.39874818	    101.49097285	     77.65874340	    -26.65274137	    -42.10565288	    -36.63302950	    123.73925449	     80.83555730
      2.93333330	     -4.65770536	      0.98349922	      2.80117432	      0.00674113	      0.85205958	     -0.06108347	     44.74353268	    -10.42846766	     -2.72815078	     39.97268608	      0.69765498	    -12.03240266	     -3.72584585	     -7.49999987	     44.11820309	     -6.70442886	     -4.21490138	     31.88236539	      0.55645225	    -24.11377625	     -6.32946853	     -7.49999987	    -32.91477654	      2.79843839	      6.65006660	    -37.20337300	    -25.49724337	    -28.95623503	    101.16794033	     76.87134302	    -25.82676576	    -41.61045279	    -35.86140950	    124.42726801	     80.32863899
      2.93750000	     -4.60236643	      1.16681862	      2.92615638	      0.01454261	      0.83865677	     -0.06153404	     45.80727125	    -10.59343401	     -2.01117653	     43.09528930	      0.75215469	     -7.57253257	     -4.61528652	     -7.49999987	     45.78499304	     -6.58527954	     -3.96682546	     35.49313449	      0.61947206	    -21.41993695	     -8.47358054	     -7.49999987	    -33.38132594	      2.64429870	      6.36267388	    -35.91647245	    -25.20911729	    -28.47102779	    100.55611407	     76.49772308	    -24.41160823	    -40.81745199	    -35.18915371	    124.58208568	     80.02939968
      2.94166670	     -4.82301339	      1.24259808	      3.09135581	      0.01704576	      0.82809374	     -0.06233236	     47.29947580	    -10.72431183	     -1.28238032	     46.14977350	      0.80546550	     -3.29356644	     -4.41661555	     -7.49999987	     47.81916634	     -6.27792048	     -3.79755605	     39.34061931	      0.68662334	    -18.55206167	    -11.24009426	     -7.49999987	    -33.46236211	      2.57193593	      5.59391043	    -33.73481607	    -25.12639303	    -28.05598157	     99.07170089	     83.77195391	    -25.00840699	    -38.45331023	    -36.81437371	    125.29221595	     90.56771894
      2.94583330	     -4.95724285	      1.14309631	      3.09722409	      0.02365174	      0.81536436	     -0.06060791	     48.68022507	    -10.45859287	     -0.50393798	     49.09690553	      0.85690265	      0.17412804	     -4.86774489	     -7.49999987	     49.51411371	     -6.32289621	     -3.68577193	     42.85628627	      0.74798330	    -15.50590193	    -13.62580004	     -7.49999987	    -33.59802719	      2.67039006	      5.97190154	    -32.69526801	    -24.78582520	    -28.14956801	     98.46109429	     82.69056478	    -24.27957886	    -37.16296224	    -36.39292471	    125.69859673	     89.27942168
      2.95000000	     -5.17756943	      1.10041273	      2.86426375	      0.02702390	      0.80603595	     -0.06550962	     50.28532554	    -10.35159586	      0.14494416	     51.72417107	      0.90275709	      2.75583361	     -4.98881693	     -7.49999987	     51.13539804	     -6.16244061	     -3.53891344	     46.09192686	      0.80445588	    -12.88620869	    -16.30881757	     -7.49999987	    -33.49722461	      3.00546524	      6.22482929	    -31.14613813	    -24.79476124	    -28.43291234	     97.60849873	     82.19743522	    -23.70598002	    -34.65182515	    -35.72261760	    125.81959548	     88.83984795
      2.95416670	     -4.99677329	      0.95707013	      2.62515349	      0.03291171	      0.79951630	     -0.06520203	     51.15070620	    -10.18586992	      0.53398488	     53.96548813	      0.94187545	      4.77415124	     -5.02440982	     -7.49999987	     51.90428826	     -6.13007787	     -3.14079773	     48.70992264	      0.85014853	    -10.81447656	    -18.96460310	     -7.49999987	    -33.81772311	      3.24309891	      6.51536008	    -28.94952556	    -24.76145929	    -28.27316399	     95.91830590	     82.36681479	    -23.02693664	    -32.16198212	    -34.65900616	    125.76360662	     89.32997963
      2.95833330	     -5.00230057	      1.04207356	      2.36573729	      0.03742458	      0.78894918	     -0.06774286	     52.69370810	    -10.29208970	      1.11769926	     56.70624816	      0.98971074	      6.61120926	     -4.32512876	     -7.49999987	     53.16231371	     -5.87090001	     -2.85630708	     51.70578247	      0.90243615	     -8.90512070	    -21.12208423	     -7.49999987	    -34.01166472	      3.35735606	      6.48201674	    -26.67082569	    -24.85425985	    -27.98833567	     94.31408716	     81.91970702	    -22.83952180	    -29.75134205	    -33.52184484	    125.95181869	     89.25799823
